<?xml version="1.0" encoding="UTF-8" standalone="no"?>
<svg
   width="1410.2878"
   height="536.95111"
   viewBox="0 0 1410.2877 536.95111"
   version="1.1"
   xml:space="preserve"
   id="SVGRoot"
   inkscape:version="1.4.2 (ebf0e940d0, 2025-05-08)"
   sodipodi:docname="ability-container-light.svg"
   xmlns:inkscape="http://www.inkscape.org/namespaces/inkscape"
   xmlns:sodipodi="http://sodipodi.sourceforge.net/DTD/sodipodi-0.dtd"
   xmlns="http://www.w3.org/2000/svg"
   xmlns:svg="http://www.w3.org/2000/svg"><defs
   id="defs2"><inkscape:path-effect
     effect="bspline"
     id="path-effect18"
     is_visible="true"
     lpeversion="1.3"
     weight="33.333333"
     steps="2"
     helper_size="0"
     apply_no_weight="true"
     apply_with_weight="true"
     only_selected="false"
     uniform="false" /><inkscape:path-effect
     effect="bspline"
     id="path-effect5"
     is_visible="true"
     lpeversion="1.3"
     weight="33.333333"
     steps="2"
     helper_size="0"
     apply_no_weight="true"
     apply_with_weight="true"
     only_selected="false"
     uniform="false" /><inkscape:path-effect
     effect="bspline"
     id="path-effect4"
     is_visible="true"
     lpeversion="1.3"
     weight="33.333333"
     steps="2"
     helper_size="0"
     apply_no_weight="true"
     apply_with_weight="true"
     only_selected="false"
     uniform="false" /><inkscape:path-effect
     effect="bspline"
     id="path-effect13"
     is_visible="true"
     lpeversion="1.3"
     weight="33.333333"
     steps="2"
     helper_size="0"
     apply_no_weight="true"
     apply_with_weight="true"
     only_selected="false"
     uniform="false" /><inkscape:path-effect
     effect="bspline"
     id="path-effect12"
     is_visible="true"
     lpeversion="1.3"
     weight="33.333333"
     steps="2"
     helper_size="0"
     apply_no_weight="true"
     apply_with_weight="true"
     only_selected="false"
     uniform="false" /><inkscape:path-effect
     effect="bspline"
     id="path-effect11"
     is_visible="true"
     lpeversion="1.3"
     weight="33.333333"
     steps="2"
     helper_size="0"
     apply_no_weight="true"
     apply_with_weight="true"
     only_selected="false"
     uniform="false" /><inkscape:path-effect
     effect="bspline"
     id="path-effect10"
     is_visible="true"
     lpeversion="1.3"
     weight="33.333333"
     steps="2"
     helper_size="0"
     apply_no_weight="true"
     apply_with_weight="true"
     only_selected="false"
     uniform="false" /><inkscape:path-effect
     effect="bspline"
     id="path-effect4-6"
     is_visible="true"
     lpeversion="1.3"
     weight="33.333333"
     steps="2"
     helper_size="0"
     apply_no_weight="true"
     apply_with_weight="true"
     only_selected="false"
     uniform="false" /></defs>
  <sodipodi:namedview
   pagecolor="#a9a9a9"
   bordercolor="#292929"
   borderopacity="1"
   inkscape:showpageshadow="2"
   inkscape:pageopacity="0.0"
   inkscape:pagecheckerboard="0"
   inkscape:deskcolor="#232323"
   id="namedview1"
   inkscape:zoom="2"
   inkscape:cx="606.25"
   inkscape:cy="622.25"
   inkscape:window-width="2560"
   inkscape:window-height="1364"
   inkscape:window-x="0"
   inkscape:window-y="0"
   inkscape:window-maximized="1"
   inkscape:current-layer="SVGRoot"><inkscape:page
     x="2.0109812e-08"
     y="3.1801667e-10"
     width="1410.2877"
     height="536.95111"
     id="page1"
     margin="0"
     bleed="0" /></sodipodi:namedview>
 <style
   type="text/css"
   id="style1">
g.prefab path {
  vector-effect:non-scaling-stroke;
  -inkscape-stroke:hairline;
  fill: none;
  fill-opacity: 1;
  stroke-opacity: 1;
  stroke: #00349c;
}
 </style>
 
<path
   id="path2"
   style="fill:#fdfcfd;fill-opacity:1;stroke:#1d1e1d;stroke-width:12;stroke-linecap:square;stroke-miterlimit:3;stroke-dasharray:none;stroke-opacity:1;paint-order:normal"
   d="m 488.01255,530.65923 c -0.92631,0.3909 -437.703255,0.40445 -438.823975,-0.0522 -1.12071,-0.45663 -42.4023805,-41.03458 -42.8657805,-42.13506 -0.4634,-1.10048 -0.41219,-383.27194 0.0532,-384.33223 0.46536,-1.06028 41.8194605,-40.115888 42.9409905,-40.554298 1.12153,-0.43842 437.778365,-0.38996 438.814245,0.0504 1.03589,0.44028 39.19294,39.564408 39.62126,40.625458 0.42833,1.06106 0.38099,383.23706 -0.0492,384.33674 -0.43014,1.09968 -38.72655,41.6543 -39.65287,42.04521 z"
   sodipodi:nodetypes="ssssssssss"
   inkscape:label="base-shape" /><path
   style="fill:#4cd823;fill-opacity:0;stroke:#1d1e1d;stroke-width:7.9997;stroke-linecap:square;stroke-miterlimit:3;stroke-dasharray:none;stroke-opacity:1;paint-order:stroke fill markers"
   d="M 56.435335,503.75166 478.8862,503.67196"
   id="path7"
   inkscape:label="horizontal-line-bottom" /><path
   style="fill:#4cd823;fill-opacity:0;stroke:#1d1e1d;stroke-width:7.99873;stroke-linecap:square;stroke-miterlimit:3;stroke-dasharray:none;stroke-opacity:1;paint-order:stroke fill markers"
   d="m 59.455255,87.941951 417.291805,-0.0807"
   id="path7-7"
   inkscape:label="horizontal-line-top" /><path
   style="fill:#4cd823;fill-opacity:0;stroke:#1d1e1d;stroke-width:7;stroke-linecap:square;stroke-miterlimit:3;stroke-dasharray:none;stroke-opacity:1;paint-order:stroke fill markers"
   d="m 604.59632,703.35476 c 13.85989,-5.21896 27.81227,-10.47274 38.95166,-15.91271 11.13939,-5.43996 19.72889,-11.18347 27.80225,-18.63678 8.07336,-7.45331 16.00442,-17.02362 21.77497,-25.45512 5.77054,-8.43149 9.6312,-16.03765 11.62596,-19.95432 1.99477,-3.91668 2.13857,-4.17328 2.28237,-4.42987"
   id="path10"
   inkscape:path-effect="#path-effect10"
   inkscape:original-d="m 604.59632,703.35476 c 13.62897,-5.8322 28.88458,-7.62502 41.5642,-15.65105 9.00362,-4.9886 17.86937,-10.31897 25.62428,-17.1341 9.91872,-7.32824 16.8206,-17.75145 23.26479,-28.07336 4.52634,-7.23235 7.9212,-15.07493 11.55254,-22.76051 0.1438,-0.25659 0.2876,-0.51319 0.4314,-0.76978"
   transform="translate(-178.77867,-172.95908)"
   inkscape:label="line-bottom-right" /><path
   style="fill:#4cd823;fill-opacity:0;stroke:#1d1e1d;stroke-width:7;stroke-linecap:square;stroke-miterlimit:3;stroke-dasharray:none;stroke-opacity:1;paint-order:stroke fill markers"
   d="m 186.04332,618.02686 c 4.77205,8.24096 9.5679,16.52301 13.96893,23.71535 4.40102,7.19234 8.47815,13.41108 13.00425,18.55592 4.5261,5.14485 9.54745,9.27911 14.5764,13.0768 5.02895,3.79768 10.13119,7.30077 16.28908,10.62567 6.15789,3.3249 13.49807,6.55109 21.70468,9.62705 8.20661,3.07597 17.58722,6.10506 22.46772,7.68831 4.8805,1.58325 5.61472,1.83507 6.34167,2.08439"
   id="path11"
   inkscape:path-effect="#path-effect11"
   inkscape:original-d="m 186.04332,618.02686 c 5.16428,8.01383 10.47606,15.99713 14.32434,24.73702 3.69082,6.40328 7.68823,12.67428 12.16395,18.55336 4.05006,5.29285 10.52108,7.66639 15.07649,12.41304 4.39372,4.3454 9.4901,7.85702 15.12184,10.38233 6.97237,3.9809 14.54803,6.67134 21.95579,9.6501 8.71732,4.14937 17.76179,8.21943 27.52197,8.8871 0.75025,0.18212 1.4879,0.42394 2.18835,0.75054"
   inkscape:label="line-bottom-left"
   transform="translate(-179.87421,-173.13689)" /><path
   style="fill:#4cd823;fill-opacity:0;stroke:#1d1e1d;stroke-width:7;stroke-linecap:square;stroke-miterlimit:3;stroke-dasharray:none;stroke-opacity:1;paint-order:stroke fill markers"
   d="m 186.09062,318.94348 c 2.99671,-5.41878 6.09318,-11.01794 9.19806,-16.11938 3.10488,-5.10143 6.28534,-9.82363 9.94368,-14.35302 3.65834,-4.52939 7.89459,-8.98466 12.27935,-13.07959 4.38476,-4.09494 8.94666,-7.87093 13.41641,-11.18791 4.46975,-3.31697 8.81805,-6.15185 13.27634,-8.84922 4.45828,-2.69737 9.05764,-5.2757 14.39511,-7.97278 5.33747,-2.69708 11.48089,-5.54662 17.58392,-8.37742"
   id="path12"
   inkscape:path-effect="#path-effect12"
   inkscape:original-d="m 186.09062,318.94348 c 1.13924,-6.446 7.14199,-10.43792 9.13164,-16.51221 3.37659,-4.57034 5.27939,-10.15305 9.50108,-14.10677 3.26097,-5.24464 7.33913,-9.85023 12.56083,-13.21023 4.87922,-3.49525 8.202,-8.76826 13.75867,-11.38839 4.42868,-2.7263 8.10006,-6.59948 13.03999,-8.50145 4.87238,-2.04572 9.45613,-4.65189 13.75539,-7.71108 5.86678,-3.32911 12.23605,-5.69174 18.34527,-8.50919"
   inkscape:label="line-top-left"
   transform="translate(-179.87421,-173.13689)" /><path
   style="fill:#4cd823;fill-opacity:0;stroke:#1d1e1d;stroke-width:7;stroke-linecap:square;stroke-miterlimit:3;stroke-dasharray:none;stroke-opacity:1;paint-order:stroke fill markers"
   d="m 609.77636,237.76086 c 7.97269,2.60794 16.0811,5.26028 27.09348,11.22443 11.01239,5.96416 25.60517,15.59705 35.76952,24.26137 10.16434,8.66431 16.63933,16.91866 22.05033,25.18197 5.41099,8.26332 9.90562,16.74017 14.34498,25.11281"
   id="path13"
   inkscape:path-effect="#path-effect13"
   inkscape:original-d="m 609.77636,237.76086 c 8.34658,1.46493 17.02848,2.36406 23.92047,7.82461 14.84715,8.3615 31.51591,14.84951 42.74696,28.21786 7.64157,7.10227 14.40403,15.13111 19.18906,24.46229 4.90218,8.19603 7.68519,17.58042 13.40182,25.27582"
   transform="matrix(0.98976908,0,0,0.98976908,-173.31473,-173.16439)"
   inkscape:label="line-top-right" /><path
   id="path3"
   style="fill:#fdfcfd;fill-opacity:1;stroke:#1d1e1d;stroke-width:12;stroke-linecap:square;stroke-linejoin:miter;stroke-miterlimit:3;stroke-dasharray:none;stroke-opacity:1;paint-order:normal"
   d="m 336.8715,190.56191 c -3.88232,0.97541 -135.11355,1.24066 -138.95586,0.28877 C 194.07335,189.89879 86.643765,65.623662 86.631075,64.708422 c -0.0138,-0.91522 42.987335,-46.32308 44.378065,-46.78899 1.39074,-0.46592 276.26024,-0.59426 277.41682,-0.13295 1.15659,0.46131 40.13416,43.87944 40.14703,44.80801 0.0135,0.92857 -107.81914,126.992018 -111.70149,127.967418 z"
   sodipodi:nodetypes="sscsscs"
   inkscape:label="top-shape" /><path
   style="color:#000000;display:inline;fill:#1d1e1d;fill-opacity:1;stroke:#1d1e1d;stroke-width:0;stroke-linecap:square;stroke-miterlimit:3;stroke-dasharray:none;stroke-opacity:1"
   d="m 489.58705,57.4579 -0.85821,0.006 -10.28117,0.0684 -0.8582,0.006 0.002,12 0.85821,-0.006 10.28117,-0.0684 0.8582,-0.006 z"
   id="path14"
   inkscape:label="exit-line-top-right" /><path
   style="fill:#ffffff;fill-opacity:0;stroke:#1d1e1d;stroke-width:12;stroke-linecap:square;stroke-miterlimit:3;stroke-dasharray:none;stroke-opacity:1"
   d="m 728.32428,237.46385 c 2.46703,-0.009 4.93897,-0.0184 8.39924,-1.49553 3.46027,-1.47712 7.93229,-4.43115 12.37351,-8.38864 4.44122,-3.95749 8.85122,-8.91773 13.59713,-14.91041 4.7459,-5.99269 9.99615,-13.23766 13.03598,-17.56298 3.03982,-4.32532 4.04021,-5.98071 4.96322,-7.50805"
   id="path5"
   inkscape:path-effect="#path-effect5"
   inkscape:original-d="m 728.32428,237.46385 c 2.46703,-0.009 4.93897,-0.0184 7.40109,-0.0276 4.45842,-2.94505 8.93044,-5.89908 13.40196,-8.85278 4.41092,-4.96128 8.82092,-9.92152 13.18156,-14.82624 5.13117,-7.08065 10.38142,-14.32562 15.51074,-21.40371 0.95033,-1.57255 1.95072,-3.22794 2.87373,-4.75528"
   transform="translate(-235.07367,-174.0109)"
   sodipodi:nodetypes="cccccc"
   inkscape:label="slope-up" /><path
   style="color:#000000;display:inline;fill:#1d1e1d;fill-opacity:1;stroke:#1d1e1d;stroke-width:0;stroke-linecap:square;stroke-miterlimit:3;stroke-dasharray:none;stroke-opacity:1"
   d="m 1398.8513,5.2639034 -61.1778,0.006 -732.89899,0.0684 -61.1778,0.006 0.1193,11.9999986 61.1778,-0.006 732.89899,-0.0684 61.1778,-0.006 z"
   id="path8"
   inkscape:label="long-horizontal-bar" /><path
   style="display:inline;fill:#49474e;fill-opacity:1;stroke:#1d1e1d;stroke-width:7;stroke-linecap:square;stroke-miterlimit:3;stroke-dasharray:none;stroke-opacity:1"
   d="m 771.98291,213.69727 c 4.23616,-1.65975 8.46018,-3.31475 12.02638,-4.8627 3.56619,-1.54796 6.49892,-3.00129 9.47779,-4.52942 2.97887,-1.52814 6.09401,-3.17753 8.92495,-4.6514 2.83094,-1.47387 5.41323,-2.7908 7.89367,-4.00686 2.48044,-1.21605 4.91371,-2.35825 7.44415,-3.49917 2.53044,-1.14092 5.23061,-2.31315 7.4641,-3.28684 2.23348,-0.97369 4.33829,-1.89694 5.23674,-2.29078 0.89845,-0.39384 1.11965,-0.48946 1.17968,-0.51541"
   id="path18"
   inkscape:path-effect="#path-effect18"
   inkscape:original-d="m 771.98291,213.69727 c 4.24876,-1.6276 8.56808,-3.03935 12.6876,-4.97108 3.03926,-1.1686 5.94382,-2.67876 8.73317,-4.32778 2.89129,-1.94433 6.26415,-3.10697 9.27028,-4.90838 2.60487,-1.23983 5.0713,-2.78396 7.70055,-3.92716 2.34605,-1.27173 4.68431,-2.61634 7.24754,-3.40204 2.40363,-1.74051 5.41185,-2.20317 8.02199,-3.48261 2.05433,-0.21895 3.88712,-1.76234 5.62672,-2.46808 0.1111,0.0418 0.36585,0.0238 0.35961,-0.15545"
   inkscape:label="bar-decoration"
   transform="translate(-243.72944,-173.11399)" /><circle
   id="path15"
   style="display:inline;fill:#1d1e1d;fill-opacity:1;stroke:#1d1e1d;stroke-width:0.0999999;stroke-dasharray:none;stroke-opacity:1"
   cx="1398.8397"
   cy="11.448151"
   r="11.39815"
   inkscape:label="circle" /></svg>
